<svg xmlns="http://www.w3.org/2000/svg" xmlns:xlink="http://www.w3.org/1999/xlink"><symbol id="htmlacademy-icon"><g fill="#666"><path d="M13.643.016 13.5 0 0 1.407v24.606L13.5 34 27 26.013V1.407L13.643.016Zm11.591 25L13.5 31.956 1.766 25.015V14.93l11.685 6.916.02 1.253-8.017-4.743-.011 1.225 8.046 4.809.02 1.286-8.045-4.758-.01 1.226L13.5 26.95l8.124-4.833V16.91l3.62-2.15-.01 10.256Zm0-11.564-3.22 1.88-1.482.875-7.065-4.187-.011 1.225 6.04 3.573-.053.031-.13.076-.86.492-4.986-2.948-.011 1.225 3.936 2.328-.933.61-.021.012-2.971-1.742-.011 1.225 1.947 1.135-1.988 1.186-11.618-6.872 11.638-6.958 11.8 6.834Zm0-1.225L13.44 5.31 1.766 12.22V2.99L13.5 1.764 25.234 2.99v9.237Z"/></g></symbol><symbol id="htmlacademy-text"><g fill="none"><path d="M.281 12V.547h1.516V5.25H7.75V.547h1.516V12H7.75V6.602H1.797V12H.28Zm14.43 0V1.898h-3.774V.547h9.079v1.351h-3.79V12h-1.515Zm6.82 0V.547h2.282l2.71 8.11c.25.754.433 1.32.547 1.695.13-.417.334-1.03.61-1.836l2.742-7.97h2.039V12H31V2.414L27.672 12h-1.367l-3.313-9.75V12h-1.46Zm13.313 0V.547h1.515v10.101H42V12h-7.156Zm10.68 0L49.921.547h1.633L56.242 12h-1.726L53.18 8.531h-4.79L47.134 12h-1.61Zm3.304-4.703h3.883l-1.195-3.172a31.346 31.346 0 0 1-.813-2.375 14.587 14.587 0 0 1-.617 2.188l-1.258 3.359Zm13.86 1.664 1.382.18c-.15.953-.539 1.7-1.164 2.242-.62.536-1.383.805-2.289.805-1.135 0-2.05-.37-2.742-1.11-.688-.745-1.031-1.81-1.031-3.195 0-.896.148-1.68.445-2.352.297-.672.747-1.174 1.352-1.508a4.02 4.02 0 0 1 1.984-.507c.901 0 1.638.229 2.21.687.574.453.941 1.1 1.102 1.938l-1.367.21c-.13-.557-.362-.976-.695-1.257-.328-.282-.727-.422-1.195-.422-.709 0-1.284.255-1.727.766-.443.505-.664 1.307-.664 2.406 0 1.114.214 1.924.64 2.43.428.505.985.757 1.673.757.552 0 1.013-.169 1.382-.508.37-.338.605-.859.703-1.562Zm8 2.016c-.521.442-1.024.755-1.508.937-.48.182-.995.274-1.547.274-.912 0-1.612-.222-2.102-.665-.49-.447-.734-1.018-.734-1.71 0-.407.091-.777.273-1.11.188-.338.43-.61.727-.812a3.47 3.47 0 0 1 1.016-.461c.275-.073.692-.144 1.25-.211 1.135-.136 1.97-.297 2.507-.485.006-.192.008-.315.008-.367 0-.573-.133-.976-.398-1.21-.36-.318-.894-.477-1.602-.477-.661 0-1.15.117-1.469.351-.312.23-.544.638-.695 1.227L65.04 6.07c.125-.588.33-1.062.617-1.422.287-.364.7-.643 1.242-.835.542-.198 1.17-.297 1.883-.297.709 0 1.284.083 1.727.25.443.166.768.377.976.632.209.25.355.568.438.954.047.24.07.671.07 1.296v1.875c0 1.308.029 2.136.086 2.485.063.344.182.674.36.992h-1.47a2.981 2.981 0 0 1-.28-1.023Zm-.118-3.141c-.51.208-1.276.385-2.297.531-.578.084-.986.177-1.226.281a1.214 1.214 0 0 0-.75 1.125c0 .375.14.688.422.938.286.25.703.375 1.25.375.541 0 1.023-.117 1.445-.352.422-.24.732-.565.93-.976.15-.318.226-.787.226-1.406v-.516ZM79.563 12v-1.047c-.526.823-1.3 1.235-2.32 1.235-.662 0-1.272-.183-1.829-.547-.552-.365-.982-.873-1.289-1.524-.302-.656-.453-1.409-.453-2.258 0-.828.138-1.578.414-2.25.276-.677.69-1.195 1.242-1.554.552-.36 1.17-.54 1.852-.54.5 0 .945.107 1.336.32.39.21.708.483.953.821V.546h1.398V12h-1.305Zm-4.446-4.14c0 1.062.224 1.856.672 2.382.448.526.977.79 1.586.79.615 0 1.135-.25 1.563-.75.432-.506.648-1.274.648-2.305 0-1.136-.219-1.97-.656-2.5-.438-.532-.977-.797-1.618-.797-.624 0-1.148.255-1.57.765-.416.51-.625 1.315-.625 2.414Zm13.649 1.468 1.453.18c-.23.849-.654 1.508-1.274 1.976-.62.47-1.411.704-2.375.704-1.213 0-2.177-.373-2.89-1.118-.709-.75-1.063-1.8-1.063-3.148 0-1.396.36-2.48 1.078-3.25.72-.771 1.651-1.156 2.797-1.156 1.11 0 2.016.377 2.719 1.132.703.756 1.055 1.818 1.055 3.188 0 .083-.003.208-.008.375H84.07c.052.911.31 1.61.774 2.094.463.484 1.041.726 1.734.726.516 0 .956-.135 1.32-.406.365-.27.654-.703.868-1.297Zm-4.618-2.273h4.633c-.062-.698-.24-1.222-.531-1.57-.448-.542-1.029-.813-1.742-.813-.646 0-1.19.216-1.633.648-.438.433-.68 1.01-.727 1.735ZM91.992 12V3.703h1.258v1.164c.26-.406.607-.732 1.04-.976.431-.25.923-.375 1.476-.375.614 0 1.117.127 1.507.382.396.256.675.612.836 1.07.657-.968 1.51-1.452 2.563-1.452.823 0 1.456.229 1.898.687.443.453.664 1.154.664 2.102V12h-1.398V6.773c0-.562-.047-.966-.141-1.21a1.15 1.15 0 0 0-.492-.602 1.548 1.548 0 0 0-.844-.227c-.583 0-1.067.196-1.453.586-.385.386-.578 1.006-.578 1.86V12h-1.406V6.61c0-.626-.115-1.094-.344-1.407-.229-.312-.604-.469-1.125-.469-.396 0-.763.105-1.101.313a1.778 1.778 0 0 0-.727.914c-.151.401-.227.98-.227 1.734V12h-1.406Zm13.266 3.195-.156-1.32c.307.083.575.125.804.125.313 0 .563-.052.75-.156.188-.104.341-.25.461-.438.089-.14.232-.49.43-1.047.026-.078.068-.192.125-.343l-3.149-8.313h1.516l1.727 4.805c.224.61.424 1.25.601 1.922.162-.646.354-1.276.578-1.89l1.774-4.837h1.406l-3.156 8.438c-.339.911-.602 1.539-.789 1.882-.25.464-.537.803-.86 1.016-.323.219-.708.328-1.156.328-.271 0-.573-.057-.906-.172Z" fill="#444"/></g></symbol><symbol id="social-icon-fc" viewBox="34.789 -4.709 13.518 27.75"><path d="M44.32 23.041h-6.816V10.137h-2.715V3.763h2.629c-.202-2.887.298-5 1.519-6.444 1.039-1.229 2.583-1.911 4.588-2.026l4.782-.001v6.15h-3.755c-.166.315-.251 1.093-.252 2.321h3.978v6.375H44.32v12.903zm-5.316-1.5h3.816V8.637h3.957V5.263h-3.953l-.016-.734c-.044-2.04.002-3.784 1.007-4.46l.19-.127h2.801v-3.15h-3.239c-1.557.091-2.711.581-3.485 1.496-1.041 1.231-1.41 3.298-1.099 6.144l.092.832h-2.786v3.375h2.715v12.902z" fill="#666"/></symbol><symbol id="social-icon-inst" viewBox="-3 -3 23 23"><path fill="#666" d="M14.002-1.501C16.482-1.501 18.5.519 18.5 3v11c0 2.481-2.018 4.5-4.498 4.5H3.01A4.504 4.504 0 0 1-1.488 14V3C-1.488.519.53-1.5 3.01-1.5h10.992m0-1.5H3.01C-.29-3-2.987-.301-2.987 3v11.001C-2.987 17.299-.29 20 3.01 20h10.995C17.301 20 20 17.299 20 13.999V3c0-3.301-2.699-6-5.998-6z"/><path fill="#231F20" d="M8.506 4.078a4.434 4.434 0 0 1 4.429 4.428c0 2.44-1.989 4.43-4.429 4.43a4.434 4.434 0 0 1-4.428-4.43 4.431 4.431 0 0 1 4.428-4.428m0-1.5a5.929 5.929 0 0 0 0 11.855c3.274 0 5.926-2.653 5.926-5.927S11.78 2.578 8.506 2.578z"/><circle fill="#666" cx="14.646" cy="2.379" r="1.341"/></symbol><symbol id="social-icon-vk" viewBox="3.007 11.628 30.004 15.761"><path d="M26.945 27.388c-.386 0-1.17-.082-2.075-.632-.642-.385-1.223-.968-1.784-1.532-.438-.44-1.171-1.177-1.447-1.177-.268.075-.481.921-.476 1.569.004.113-.001.774-.468 1.213-.425.4-1.088.485-1.216.498l-1.926.007c-.967 0-4.358-.218-7.429-3.021-3.674-3.358-6.835-9.798-6.968-10.07-.197-.462-.248-1.066.152-1.482.392-.413 1.081-.472 1.359-.479l4.083-.024.115.008c.091.014.567.095.957.349.388.247.59.651.626.73.01.021.649 1.432 1.475 2.684 1.312 1.99 1.896 2.455 2.103 2.562.188-.417.277-1.7.187-2.871.001-.493-.101-1.098-.252-1.278-.112-.134-.426-.253-.778-.294l-.722-.691c-.096-.658.635-1.226 1.149-1.446.737-.316 1.792-.382 3.147-.382l.71.005c1.235.012 1.622.081 2.149.191 1.702.361 1.64 1.729 1.567 3.312-.021.464-.046 1.001-.046 1.621 0 .151-.005.312-.011.479-.012.38-.032 1.038.093 1.304.219-.145.852-.665 2.072-2.483.783-1.165 1.4-2.539 1.517-2.803l.001-.001c.182-.43.608-.941 1.613-.946l4.274-.024c.012-.003.172-.016.377-.016.98 0 1.597.287 1.832.854.269.65.169 1.657-2.354 4.605-.37.432-.697.804-.982 1.127-.598.678-1.216 1.379-1.237 1.595.053.169.662.665 1.252 1.145 1.53 1.247 2.528 2.264 3.033 3.073.522.759.429 1.33.258 1.677-.424.864-1.638.973-1.877.985l-3.79.047a2.525 2.525 0 0 1-.263.012zm-5.307-4.84c.899 0 1.682.786 2.511 1.618.497.5 1.011 1.016 1.496 1.307.727.44 1.316.421 1.398.412l.103-.009 3.805-.047c.171-.012.411-.073.536-.136a1.167 1.167 0 0 0-.098-.167c-.449-.718-1.388-1.659-2.686-2.718-1.184-.963-1.801-1.465-1.865-2.244-.066-.805.493-1.439 1.607-2.703.28-.318.604-.685.967-1.109 1.559-1.821 1.957-2.64 2.058-2.956-.17-.029-.648-.021-.678-.018l-4.361.028c-.191.001-.249.035-.249.036-.176.414-.812 1.812-1.644 3.05-1.895 2.82-2.785 3.2-3.407 3.201-.204 0-.396-.05-.569-.148-1.003-.569-.963-1.834-.934-2.757.005-.149.01-.295.01-.431 0-.646.025-1.207.048-1.689.076-1.68.016-1.692-.379-1.776-.409-.086-.705-.147-1.856-.159l-.693-.005c-.624 0-1.343.014-1.906.098.092.074.18.157.259.251.588.704.604 1.951.601 2.194.13 1.646.061 3.796-1.018 4.313a1.365 1.365 0 0 1-.597.137c-.926 0-1.854-.885-3.425-3.267a22.863 22.863 0 0 1-1.587-2.887.47.47 0 0 0-.075-.094 1.133 1.133 0 0 0-.32-.116l-4.001.024c-.021.001-.045.002-.07.005.591 1.189 3.426 6.592 6.519 9.419 2.74 2.502 5.826 2.629 6.417 2.629l1.851-.003c.046-.01.218-.062.269-.1-.019.018-.01-.053-.01-.097-.003-.265.012-2.595 1.578-3.034.126-.034.259-.052.395-.052z" fill="#666"/></symbol></svg>